<?xml version="1.0" encoding="utf-8"?>
<svg version="1.1" width="32" height="32" xmlns="http://www.w3.org/2000/svg" xmlns:xlink="http://www.w3.org/1999/xlink" x="0px" y="0px"
	 viewBox="0 0 32 32" enable-background="new 0 0 32 32" xml:space="preserve">
<g transform="translate(-52 -40.764)">
	<path fill="#231F20" d="M73.891,56.076l0.01,8.935H59.502V50.616l9.232,0.007l4.554-4.53c-0.18-0.023-1.012,0.01-1.196,0.01
		l-12.591,0.013c-2.486,0-4.501,2.016-4.501,4.501v14.398c0,2.486,2.016,4.501,4.501,4.501l0,0h14.398
		c2.486,0,4.501-2.016,4.501-4.501l0,0V51.665L73.891,56.076z"/>
	<path fill="#F69320" d="M80.862,44.746c-0.016-0.415-0.362-0.741-0.777-0.732l-4.106,0.089c-0.414,0.008-0.505,0.247-0.205,0.532
		l0.938,0.886l0.023,0.023l-0.008,0.008c-2.918,2.929-5.835,5.86-8.753,8.789c-0.209,0.209-0.418,0.417-0.689,0.685
		c0,0-1.68-2.01-1.707-2.048c-0.246-0.455-0.813-0.625-1.268-0.379c-0.055,0.03-0.108,0.065-0.156,0.105
		c-0.434,0.292-0.87,0.591-1.301,0.887c-0.49,0.214-0.713,0.785-0.497,1.275c0.047,0.108,0.113,0.205,0.195,0.289
		c0.075,0.11,3.08,3.976,3.08,3.976c0.061,0.089,0.125,0.174,0.193,0.257c0.419,0.651,1.288,0.838,1.938,0.418
		c0.127-0.082,0.24-0.184,0.336-0.303c3.786-3.797,7.568-7.594,11.35-11.397l0.107,0.103l0.928,0.876
		c0.301,0.283,0.532,0.179,0.518-0.234L80.862,44.746z"/>
</g>
</svg>
