<?xml version="1.0" encoding="utf-8"?>
<!-- Generator: Adobe Illustrator 26.0.2, SVG Export Plug-In . SVG Version: 6.00 Build 0)  -->
<svg version="1.1" id="Layer_1" xmlns="http://www.w3.org/2000/svg" xmlns:xlink="http://www.w3.org/1999/xlink" x="0px" y="0px"
	 width="32px" height="32px" viewBox="0 0 32 32" enable-background="new 0 0 32 32" xml:space="preserve">
<path fill="#FFFFFF" d="M32,0H0v32h32V0z"/>
<path fill-rule="evenodd" clip-rule="evenodd" fill="#4285F4" d="M25.99,16.232c0-0.723-0.065-1.419-0.185-2.087h-9.61v3.947h5.492
	c-0.237,1.276-0.955,2.356-2.036,3.08v2.56h3.298C24.877,21.955,25.99,19.34,25.99,16.232z"/>
<path fill-rule="evenodd" clip-rule="evenodd" fill="#34A853" d="M16.194,26.204c2.755,0,5.065-0.914,6.753-2.472l-3.298-2.56
	c-0.914,0.612-2.083,0.974-3.455,0.974c-2.658,0-4.907-1.795-5.71-4.207H7.075v2.644C8.754,23.917,12.205,26.204,16.194,26.204z"/>
<path fill-rule="evenodd" clip-rule="evenodd" fill="#FBBC05" d="M10.484,17.939c-0.204-0.612-0.32-1.266-0.32-1.939
	c0-0.673,0.116-1.327,0.32-1.939v-2.644H7.075C6.384,12.795,5.99,14.353,5.99,16c0,1.647,0.394,3.205,1.085,4.583L10.484,17.939z"/>
<path fill-rule="evenodd" clip-rule="evenodd" fill="#EA4335" d="M16.194,9.854c1.498,0,2.843,0.515,3.901,1.526l2.927-2.927
	c-1.767-1.647-4.077-2.658-6.827-2.658c-3.989,0-7.44,2.287-9.119,5.622l3.409,2.644C11.286,11.649,13.536,9.854,16.194,9.854z"/>
</svg>
