<?xml version="1.0" encoding="utf-8"?>
<svg version="1.1" width="32" height="32" xmlns="http://www.w3.org/2000/svg" xmlns:xlink="http://www.w3.org/1999/xlink" x="0px" y="0px"
	 viewBox="0 0 32 32" enable-background="new 0 0 32 32" xml:space="preserve">
<path id="BG" fill="#516FFF" d="M32,0H0v32h32V0z"/>
<path id="Bubble" fill-rule="evenodd" clip-rule="evenodd" fill="#FFFFFF" d="M11.3,20.7L8,24V10c0-1.1,0.9-2,2-2h12
	c1.1,0,2,0.9,2,2v8.8c0,1.1-0.9,2-2,2H11.3V20.7z"/>
<path id="Lines" fill-rule="evenodd" clip-rule="evenodd" fill="#516FFF" d="M11.2,11.4h9.5V13h-9.5C11.2,13,11.2,11.4,11.2,11.4z
	 M11.2,13.8h9.5v1.6h-9.5C11.2,15.4,11.2,13.8,11.2,13.8z M11.2,16.1h6.4v1.6h-6.4C11.2,17.7,11.2,16.1,11.2,16.1z"/>
</svg>
