<?xml version="1.0" encoding="utf-8"?>
<svg version="1.1" width="32" height="32" xmlns="http://www.w3.org/2000/svg" xmlns:xlink="http://www.w3.org/1999/xlink" x="0px" y="0px"
	 viewBox="0 0 32 32" enable-background="new 0 0 32 32" xml:space="preserve">
<rect id="BG" y="0" fill="#82BE06" width="32" height="32"/>
<path id="Kik" fill="#FFFFFF" d="M6.1,25.4V6.6c0-1.3,1-2.4,2.1-2.4c1.2,0,2.1,1.1,2.1,2.4v10.6l5.4-5.8c0.6-0.7,1.1-1.1,1.9-1.1
	c1.2,0,1.9,1.1,1.9,2.2c0,0.8-0.4,1.5-1,2.1l-3.4,3.3l4,6.2c0.4,0.6,0.5,1,0.5,1.6c0,1.3-0.9,2.2-2,2.2c-0.8,0-1.4-0.3-1.9-1.1
	L12,20.9l-1.7,1.8v2.8c0,1.3-1,2.4-2.1,2.4C7.1,27.9,6.1,26.8,6.1,25.4z M23.3,22.6c1.4,0,2.6-1.2,2.6-2.6s-1.2-2.6-2.6-2.6
	s-2.6,1.2-2.6,2.6C20.8,21.4,21.9,22.6,23.3,22.6z"/>
</svg>
