<?xml version="1.0" encoding="utf-8"?>
<svg version="1.1" width="32" height="32"  xmlns="http://www.w3.org/2000/svg" xmlns:xlink="http://www.w3.org/1999/xlink" x="0px" y="0px"
	 viewBox="0 0 32 32" enable-background="new 0 0 32 32" xml:space="preserve">
<path id="BG" fill="#00B900" d="M32,0H0v32h32V0z"/>
<path fill="#FFFFFF" d="M27.78,14.305c0-5.37-5.383-9.739-12-9.739s-12,4.369-12,9.739c0,4.814,4.27,8.846,10.037,9.608
	c0.392,0.083,0.923,0.257,1.057,0.593c0.121,0.303,0.078,0.778,0.038,1.084c0,0-0.139,0.848-0.172,1.027
	c-0.054,0.303-0.241,1.186,1.041,0.646c1.279-0.539,6.912-4.069,9.428-6.966l0,0C26.946,18.388,27.78,16.454,27.78,14.305
	L27.78,14.305z"/>
<path fill="#00B900" d="M13.342,11.709H12.5c-0.129,0-0.233,0.105-0.233,0.233v5.228c0,0.129,0.105,0.233,0.233,0.233h0.842
	c0.129,0,0.233-0.105,0.233-0.233v-5.228C13.575,11.814,13.471,11.709,13.342,11.709L13.342,11.709z"/>
<path fill="#00B900" d="M19.135,11.709h-0.842c-0.129,0-0.233,0.105-0.233,0.233v3.106l-2.395-3.235
	c-0.005-0.008-0.011-0.016-0.019-0.024c0,0,0,0,0-0.003c-0.005-0.005-0.011-0.011-0.013-0.013c-0.003,0-0.003-0.003-0.005-0.005
	c-0.005-0.003-0.008-0.008-0.013-0.011c-0.003-0.003-0.003-0.003-0.005-0.005c-0.003-0.003-0.008-0.005-0.011-0.008
	c-0.003-0.003-0.005-0.003-0.008-0.005c-0.005-0.003-0.008-0.005-0.013-0.008c-0.003,0-0.005-0.003-0.008-0.003
	c-0.005-0.003-0.008-0.005-0.013-0.005c-0.003,0-0.005-0.003-0.008-0.003c-0.005-0.003-0.008-0.003-0.013-0.005
	c-0.003,0-0.005,0-0.008-0.003c-0.005,0-0.008-0.003-0.013-0.003c-0.003,0-0.005,0-0.011-0.003c-0.005,0-0.008,0-0.013-0.003
	c-0.005,0-0.008,0-0.011,0c-0.003,0-0.005,0-0.008,0h-0.842c-0.129,0-0.233,0.105-0.233,0.233v5.228
	c0,0.129,0.105,0.233,0.233,0.233h0.842c0.129,0,0.233-0.105,0.233-0.233v-3.098l2.398,3.24c0.016,0.024,0.038,0.043,0.059,0.056
	c0,0,0.003,0,0.003,0.003c0.005,0.003,0.011,0.005,0.013,0.008c0.003,0,0.005,0.003,0.008,0.003
	c0.003,0.003,0.008,0.003,0.011,0.005c0.003,0.003,0.008,0.003,0.011,0.005c0.003,0,0.005,0.003,0.008,0.003
	c0.005,0.003,0.011,0.003,0.016,0.005h0.003c0.019,0.005,0.04,0.008,0.059,0.008h0.842c0.129,0,0.233-0.105,0.233-0.233v-5.228
	C19.369,11.814,19.264,11.709,19.135,11.709L19.135,11.709z"/>
<path fill="#00B900" d="M11.314,16.094H9.026v-4.152c0-0.129-0.105-0.233-0.233-0.233H7.951c-0.129,0-0.233,0.105-0.233,0.233v5.228
	c0,0.062,0.024,0.121,0.064,0.161l0.003,0.003l0.003,0.003c0.043,0.04,0.099,0.064,0.161,0.064h3.363
	c0.129,0,0.233-0.105,0.233-0.233v-0.842C11.548,16.202,11.443,16.094,11.314,16.094L11.314,16.094z"/>
<path fill="#00B900" d="M23.784,13.018c0.129,0,0.233-0.105,0.233-0.233v-0.842c0-0.129-0.105-0.233-0.233-0.233H20.42
	c-0.062,0-0.121,0.024-0.161,0.067l-0.003,0.003c0,0.003-0.003,0.003-0.003,0.005c-0.04,0.043-0.064,0.099-0.064,0.161v5.228
	c0,0.062,0.024,0.121,0.064,0.161l0.003,0.003l0.003,0.003c0.043,0.04,0.099,0.067,0.161,0.067h3.363
	c0.129,0,0.233-0.105,0.233-0.233V16.33c0-0.129-0.105-0.233-0.233-0.233h-2.288v-0.882h2.288c0.129,0,0.233-0.105,0.233-0.233
	v-0.842c0-0.129-0.105-0.233-0.233-0.233h-2.288v-0.882h2.288V13.018z"/>
</svg>
