<?xml version="1.0" encoding="utf-8"?>
<svg version="1.1" width="32" height="32" xmlns="http://www.w3.org/2000/svg" xmlns:xlink="http://www.w3.org/1999/xlink" x="0px" y="0px"
	 viewBox="0 0 32 32" enable-background="new 0 0 32 32" xml:space="preserve">
<radialGradient id="SVGID_MESSENGER" cx="-1120.7283" cy="688.6936" r="0.0356" gradientTransform="matrix(800 0 0 -800 896590 550983.875)" gradientUnits="userSpaceOnUse">
	<stop  offset="0" style="stop-color:#0099FF"/>
	<stop  offset="0.6" style="stop-color:#A033FF"/>
	<stop  offset="0.9" style="stop-color:#FF5280"/>
	<stop  offset="1" style="stop-color:#FF7061"/>
</radialGradient>
<path fill="url(#SVGID_MESSENGER)" d="M15.979,3.058c-7.336,0-12.946,5.394-12.946,12.515c0,3.776,1.51,7.012,4.1,9.278
	c0.216,0.216,0.324,0.432,0.324,0.755l0.108,2.266c0,0.539,0.539,0.971,1.079,0.971c0.108,0,0.216,0,0.432-0.108l2.589-1.187
	c0.216-0.108,0.432-0.108,0.647,0c1.187,0.324,2.481,0.539,3.776,0.539c7.336,0,12.946-5.394,12.946-12.515
	S23.315,3.058,15.979,3.058z"/>
<path fill="#FFFFFF" d="M8.245,19.24l3.776-6.041c0.539-0.863,1.726-1.187,2.697-0.647l0.108,0.108l3.021,2.266
	c0.324,0.216,0.647,0.216,0.971,0l4.1-3.129c0.539-0.432,1.295,0.216,0.863,0.863l-3.776,6.041
	c-0.539,0.863-1.726,1.187-2.697,0.647l-0.108-0.108l-3.021-2.266c-0.324-0.216-0.647-0.216-0.971,0l-4.1,3.129
	C8.569,20.535,7.921,19.888,8.245,19.24L8.245,19.24z"/>
</svg>
