<?xml version="1.0" encoding="utf-8"?>
<svg version="1.1" width="32" height="32" xmlns="http://www.w3.org/2000/svg" xmlns:xlink="http://www.w3.org/1999/xlink" x="0px" y="0px"
	 viewBox="0 0 32 32" enable-background="new 0 0 32 32" xml:space="preserve">
<path fill="#3A76F0" d="M0,0h32v32H0V0z"/>
<path fill="#FFFFFF" d="M13.119,4.35l0.269,1.091c-1.062,0.262-2.078,0.683-3.014,1.248L9.798,5.724
	C10.829,5.1,11.949,4.637,13.119,4.35z M18.881,4.35l-0.269,1.091c1.062,0.262,2.078,0.683,3.014,1.248l0.583-0.965
	C21.175,5.101,20.053,4.637,18.881,4.35z M5.724,9.795c-0.624,1.032-1.087,2.153-1.374,3.324l1.091,0.269
	c0.262-1.062,0.683-2.078,1.248-3.014L5.724,9.795z M5.124,16c0-0.546,0.041-1.09,0.123-1.63L4.136,14.2
	c-0.181,1.192-0.181,2.405,0,3.597l1.111-0.167C5.165,17.09,5.124,16.546,5.124,16z M22.202,26.272l-0.576-0.961
	c-0.935,0.565-1.95,0.986-3.011,1.248l0.269,1.091C20.053,27.36,21.172,26.896,22.202,26.272z M26.876,16
	c0,0.546-0.041,1.09-0.123,1.63l1.111,0.167c0.181-1.192,0.181-2.405,0-3.597l-1.111,0.171C26.835,14.91,26.876,15.454,26.876,16z
	 M27.65,18.877l-1.091-0.269c-0.262,1.063-0.682,2.08-1.248,3.017l0.965,0.58C26.9,21.172,27.363,20.05,27.65,18.877z M17.63,26.753
	c-1.08,0.164-2.179,0.164-3.259,0l-0.167,1.111c1.191,0.181,2.402,0.181,3.593,0L17.63,26.753z M24.755,22.45
	c-0.648,0.879-1.425,1.655-2.305,2.301l0.668,0.907c0.969-0.713,1.826-1.567,2.543-2.533L24.755,22.45z M22.45,7.245
	c0.88,0.648,1.657,1.425,2.305,2.305l0.907-0.675c-0.715-0.967-1.569-1.822-2.537-2.537L22.45,7.245z M7.245,9.55
	C7.893,8.67,8.67,7.893,9.55,7.245L8.875,6.338c-0.967,0.715-1.822,1.57-2.537,2.537L7.245,9.55z M26.276,9.795l-0.965,0.58
	c0.565,0.935,0.986,1.95,1.248,3.011l1.091-0.269C27.363,11.946,26.899,10.826,26.276,9.795z M14.37,5.247
	c1.08-0.164,2.179-0.164,3.259,0l0.167-1.111c-1.191-0.181-2.402-0.181-3.593,0L14.37,5.247z M7.821,25.959l-2.322,0.539
	l0.542-2.322L4.947,23.92l-0.542,2.322c-0.034,0.144-0.039,0.293-0.015,0.439c0.024,0.146,0.076,0.286,0.154,0.411
	c0.078,0.126,0.18,0.235,0.3,0.321c0.12,0.086,0.256,0.148,0.4,0.182c0.168,0.037,0.343,0.037,0.511,0l2.322-0.535L7.821,25.959z
	 M5.179,22.918l1.098,0.252l0.375-1.609c-0.548-0.919-0.956-1.914-1.21-2.952L4.35,18.877c0.245,0.994,0.617,1.953,1.105,2.854
	L5.179,22.918z M10.429,25.352L8.82,25.727l0.256,1.098l1.183-0.276c0.9,0.489,1.859,0.861,2.854,1.105l0.269-1.091
	c-1.035-0.258-2.027-0.668-2.942-1.217L10.429,25.352z M16,6.249c-5.387,0.003-9.747,4.371-9.747,9.754
	c0.003,1.834,0.522,3.629,1.497,5.182l-0.938,4.002l3.999-0.938c4.558,2.867,10.579,1.5,13.446-3.055s1.504-10.576-3.051-13.446
	C19.647,6.769,17.842,6.249,16,6.249z"/>
</svg>
