<?xml version="1.0" encoding="utf-8"?>
<svg version="1.1" width="32" height="32" xmlns="http://www.w3.org/2000/svg" xmlns:xlink="http://www.w3.org/1999/xlink" x="0px" y="0px"
	  viewBox="0 0 32 32" enable-background="new 0 0 32 32" xml:space="preserve">
<g>
	<circle fill-rule="evenodd" clip-rule="evenodd" fill="#FFFFFF" cx="16" cy="16" r="12"/>
</g>
<path id="Viber" fill-rule="evenodd" clip-rule="evenodd" fill="#7F4DA0" d="M16,3c7.18,0,13,5.821,13,13s-5.82,13-13,13
	S3,23.18,3,16S8.82,3,16,3z M16.78,8.283c0.885,0.111,1.601,0.324,2.385,0.706c0.772,0.378,1.266,0.735,1.92,1.385
	c0.612,0.614,0.952,1.079,1.313,1.802c0.502,1.008,0.788,2.205,0.836,3.523c0.018,0.45,0.005,0.55-0.097,0.678
	c-0.196,0.249-0.625,0.208-0.772-0.071c-0.047-0.092-0.06-0.172-0.075-0.532c-0.026-0.552-0.064-0.91-0.142-1.336
	c-0.303-1.673-1.107-3.009-2.389-3.967c-1.068-0.802-2.172-1.193-3.618-1.277c-0.489-0.028-0.574-0.047-0.685-0.131
	c-0.206-0.161-0.217-0.542-0.018-0.719c0.121-0.111,0.206-0.126,0.625-0.113C16.283,8.238,16.604,8.263,16.78,8.283L16.78,8.283z
	 M10.896,8.561c0.09,0.03,0.229,0.103,0.309,0.154c0.489,0.324,1.85,2.064,2.296,2.932c0.255,0.496,0.34,0.863,0.26,1.135
	c-0.082,0.293-0.219,0.447-0.829,0.938c-0.245,0.198-0.473,0.401-0.509,0.455c-0.093,0.133-0.167,0.395-0.167,0.581
	c0.002,0.429,0.281,1.208,0.646,1.807c0.283,0.465,0.79,1.062,1.291,1.519c0.589,0.539,1.109,0.907,1.695,1.197
	c0.754,0.375,1.214,0.47,1.551,0.313c0.084-0.039,0.176-0.09,0.204-0.113c0.026-0.023,0.224-0.264,0.44-0.532
	c0.417-0.524,0.512-0.609,0.797-0.706c0.363-0.123,0.733-0.09,1.106,0.1c0.283,0.146,0.9,0.53,1.3,0.807
	c0.525,0.367,1.647,1.283,1.799,1.465c0.268,0.329,0.314,0.751,0.133,1.215c-0.191,0.491-0.932,1.41-1.448,1.804
	c-0.468,0.354-0.801,0.491-1.238,0.511c-0.361,0.018-0.509-0.013-0.971-0.203c-3.613-1.487-6.498-3.708-8.789-6.758
	c-1.197-1.594-2.108-3.246-2.73-4.96c-0.363-1-0.381-1.434-0.082-1.946c0.131-0.214,0.679-0.75,1.078-1.048
	c0.664-0.493,0.971-0.676,1.214-0.727C10.421,8.466,10.711,8.495,10.896,8.561L10.896,8.561z M16.958,10.147
	c1.562,0.229,2.771,0.953,3.564,2.13c0.445,0.663,0.724,1.442,0.818,2.277c0.034,0.305,0.034,0.863-0.002,0.955
	c-0.034,0.088-0.142,0.206-0.234,0.255c-0.101,0.051-0.314,0.047-0.432-0.015c-0.198-0.1-0.258-0.26-0.258-0.691
	c0-0.665-0.172-1.367-0.471-1.912c-0.34-0.622-0.834-1.135-1.437-1.493c-0.517-0.309-1.282-0.537-1.979-0.594
	c-0.252-0.021-0.391-0.072-0.486-0.182c-0.146-0.167-0.163-0.393-0.039-0.581C16.136,10.087,16.342,10.054,16.958,10.147
	L16.958,10.147z M17.506,12.087c0.507,0.108,0.896,0.301,1.227,0.612c0.427,0.403,0.662,0.892,0.765,1.594
	c0.069,0.457,0.041,0.637-0.121,0.786c-0.152,0.139-0.432,0.144-0.602,0.013c-0.124-0.092-0.163-0.191-0.191-0.455
	c-0.034-0.352-0.095-0.599-0.2-0.828c-0.226-0.485-0.625-0.738-1.3-0.82c-0.316-0.039-0.412-0.075-0.515-0.195
	c-0.187-0.223-0.116-0.586,0.144-0.719c0.098-0.049,0.139-0.054,0.355-0.041C17.201,12.04,17.4,12.063,17.506,12.087L17.506,12.087z
	"/>
</svg>
