<?xml version="1.0" encoding="utf-8"?>
<svg version="1.1" width="32" height="32" xmlns="http://www.w3.org/2000/svg" xmlns:xlink="http://www.w3.org/1999/xlink" x="0px" y="0px"
	 viewBox="0 0 32 32" enable-background="new 0 0 32 32" xml:space="preserve">
<rect fill="#2DC100" width="32" height="32"/>
<g>
	<path fill="#FFFFFF" d="M20.222,12.832c-2.012,0.105-3.762,0.715-5.182,2.093c-1.435,1.392-2.09,3.098-1.911,5.213
		c-0.786-0.097-1.503-0.205-2.223-0.265c-0.249-0.021-0.544,0.009-0.755,0.128c-0.7,0.395-1.37,0.84-2.165,1.337
		c0.146-0.66,0.24-1.237,0.407-1.793c0.123-0.408,0.066-0.636-0.31-0.902c-2.415-1.705-3.434-4.257-2.672-6.885
		c0.705-2.431,2.436-3.905,4.788-4.673c3.211-1.049,6.819,0.021,8.771,2.57C19.675,10.576,20.108,11.61,20.222,12.832L20.222,12.832
		z M10.961,12.013c0.019-0.481-0.398-0.914-0.893-0.928c-0.506-0.015-0.923,0.372-0.938,0.871c-0.015,0.506,0.372,0.911,0.882,0.924
		C10.519,12.893,10.943,12.506,10.961,12.013L10.961,12.013z M15.793,11.085c-0.496,0.009-0.916,0.432-0.907,0.914
		c0.009,0.5,0.421,0.891,0.931,0.885c0.512-0.006,0.9-0.402,0.895-0.912C16.708,11.471,16.298,11.076,15.793,11.085z"/>
	<path fill="#FFFFFF" d="M24.742,25.376c-0.637-0.284-1.222-0.709-1.844-0.774c-0.62-0.065-1.271,0.293-1.92,0.359
		c-1.975,0.202-3.745-0.348-5.204-1.698c-2.775-2.567-2.379-6.503,0.832-8.607c2.854-1.87,7.039-1.246,9.051,1.348
		c1.756,2.264,1.55,5.269-0.594,7.17c-0.62,0.55-0.843,1.003-0.446,1.729C24.691,25.038,24.7,25.207,24.742,25.376L24.742,25.376z
		 M17.49,18.354c0.406,0,0.74-0.317,0.755-0.718c0.016-0.424-0.325-0.78-0.75-0.782c-0.42-0.002-0.773,0.359-0.758,0.777
		C16.751,18.031,17.087,18.354,17.49,18.354L17.49,18.354z M22.165,16.857c-0.394-0.003-0.728,0.319-0.744,0.717
		c-0.017,0.425,0.313,0.774,0.734,0.776c0.407,0.001,0.729-0.306,0.743-0.712C22.915,17.212,22.584,16.86,22.165,16.857z"/>
</g>
</svg>
